<svg xmlns="http://www.w3.org/2000/svg" width="339.953" height="294.74" viewBox="0 0 339.953 294.74">
  <g id="noun_bee_2083040" transform="translate(-6.478 -12)">
    <g id="Group_1" data-name="Group 1" transform="translate(6.478 12)">
      <path id="Path_1" data-name="Path 1" d="M34,72.842a70.574,70.574,0,0,0,4.324,23.907H144.256a73.586,73.586,0,0,0,4.365-25.217V64H34Z" transform="translate(78.666 148.867)" fill="#ff8f39"/>
      <path id="Path_2" data-name="Path 2" d="M78.782,108.317a8.16,8.16,0,0,0,2.623.432c3.085,0,29.15-9.353,45.26-32.749H36.99a87.142,87.142,0,0,0,41.792,32.317Z" transform="translate(87.916 185.991)" fill="#00387d"/>
      <path id="Path_3" data-name="Path 3" d="M122.146,98.573c-13.475-15.894-29.1-34.9-42.232-51.042C66.78,63.673,51.155,82.679,37.684,98.573Z" transform="translate(90.063 97.92)" fill="#00387d"/>
      <path id="Path_4" data-name="Path 4" d="M42.187,28.374H53.5L65.454,52.284A49,49,0,0,0,42.187,93.872v11.693L91.31,93.376l49.123,12.191v-11.7a49,49,0,0,0-23.268-41.589L129.12,28.374h11.313a8.187,8.187,0,1,0,0-16.374H124.059a8.19,8.19,0,0,0-7.323,4.525L102,46a46.392,46.392,0,0,0-21.378,0L65.884,16.525A8.19,8.19,0,0,0,58.562,12H42.187a8.187,8.187,0,1,0,0,16.374Z" transform="translate(78.666 -12)" fill="#00387d"/>
      <path id="Path_5" data-name="Path 5" d="M168.5,36.482,43.476,67.5c-20.644,5.158-34,18.5-36.666,36.619a52.952,52.952,0,0,0,25.673,51.49,50.3,50.3,0,0,0,25.953,7.156c13.424,0,29.451-3.02,41.056-15.279C114.616,131.514,149,89.563,168.5,65.548Z" transform="translate(-6.478 63.738)" fill="#ff8f39"/>
      <path id="Path_6" data-name="Path 6" d="M211.281,104.036c-2.661-18.117-16.023-31.462-36.666-36.619L50.057,36.511V66.035c19.572,24.1,53.53,65.509,68.542,81.369,11.6,12.259,27.632,15.279,41.056,15.279a50.3,50.3,0,0,0,25.953-7.156A52.952,52.952,0,0,0,211.281,104.036Z" transform="translate(128.34 63.826)" fill="#ff8f39"/>
      <path id="Path_7" data-name="Path 7" d="M156.619,81.142c-1.759-11.975-10.59-20.795-24.235-24.2L50.057,36.511V56.025c12.936,15.929,35.381,43.3,45.3,53.781,7.67,8.1,18.263,10.1,27.136,10.1a33.245,33.245,0,0,0,17.154-4.73A35,35,0,0,0,156.619,81.142Z" transform="translate(165.183 92.481)" fill="#00387d"/>
      <path id="Path_8" data-name="Path 8" d="M50.277,81.138c1.758-11.974,10.588-20.793,24.23-24.2l82.311-20.426V56.023C143.885,71.95,121.444,99.317,111.524,109.8c-7.669,8.1-18.26,10.1-27.131,10.1a33.237,33.237,0,0,1-17.151-4.729A35,35,0,0,1,50.277,81.138Z" transform="translate(-30.963 92.481)" fill="#00387d"/>
    </g>
  </g>
</svg>
